<?xml version="1.0" standalone="no"?>
<!DOCTYPE svg PUBLIC "-//W3C//DTD SVG 20010904//EN"
 "http://www.w3.org/TR/2001/REC-SVG-20010904/DTD/svg10.dtd">
<svg version="1.0" xmlns="http://www.w3.org/2000/svg"
 width="1080.000000pt" height="1080.000000pt" viewBox="0 0 1080.000000 1080.000000"
 preserveAspectRatio="xMidYMid meet">
<metadata>
Created by potrace 1.11, written by Peter Selinger 2001-2013
</metadata>
<g transform="translate(0.000000,1080.000000) scale(0.100000,-0.100000)"
fill="#000000" stroke="none">
<path d="M5830 10237 c-3 -3 -66 -7 -140 -11 -74 -4 -151 -9 -170 -11 -19 -2
-82 -9 -140 -15 -572 -60 -1141 -211 -1615 -428 -720 -330 -1323 -855 -1759
-1531 -391 -607 -674 -1379 -815 -2226 -21 -128 -56 -391 -65 -490 -3 -33 -10
-106 -16 -163 -37 -380 -33 -1285 6 -1479 4 -21 7 -20 107 27 384 180 646 300
656 300 6 0 136 -103 288 -228 281 -231 606 -492 764 -615 131 -101 197 -204
219 -341 14 -87 6 -158 -30 -273 -93 -292 -62 -581 96 -900 180 -363 504 -734
1084 -1243 102 -90 208 -178 235 -196 207 -138 577 -120 1052 51 415 151 995
459 1517 808 l119 79 -6 64 c-17 178 -145 431 -345 684 -141 177 -527 548
-697 668 -31 22 -40 24 -63 15 -15 -6 -88 -37 -162 -68 -501 -208 -967 -304
-1351 -276 -346 25 -623 130 -871 330 -344 277 -596 759 -712 1366 -28 144
-54 353 -58 460 l-3 70 -102 70 c-56 38 -175 119 -263 179 -136 92 -159 112
-155 130 3 11 19 84 35 161 292 1344 941 2394 1945 3150 935 704 2210 1154
3625 1280 96 8 191 17 211 20 231 27 1190 26 1374 -2 77 -11 28 6 -185 67
-816 232 -1624 396 -2285 465 -33 3 -76 8 -95 10 -19 2 -64 6 -100 10 -36 3
-119 10 -185 16 -115 10 -936 24 -945 16z"/>
<path d="M4775 5552 c-67 -29 -87 -43 -159 -111 -235 -226 -449 -655 -575
-1156 -115 -457 -121 -908 -15 -1119 128 -257 388 -170 640 214 192 294 341
680 423 1095 34 170 38 201 46 340 4 55 8 118 9 140 6 70 -14 267 -35 349 -34
135 -91 221 -166 252 -44 19 -119 17 -168 -4z"/>
</g>
</svg>
